<?xml version="1.0" encoding="utf-8"?>
<!-- Generator: Adobe Illustrator 26.1.0, SVG Export Plug-In . SVG Version: 6.00 Build 0)  -->
<svg version="1.1" xmlns="http://www.w3.org/2000/svg" xmlns:xlink="http://www.w3.org/1999/xlink" x="0px" y="0px"
	 viewBox="0 0 288.78 249.39" style="enable-background:new 0 0 288.78 249.39;" xml:space="preserve">
<style type="text/css">
	.st0{fill:url(#SVGID_1_);}
	.st1{fill:url(#SVGID_00000096745284218161490210000000412953662821167291_);}
	.st2{fill:url(#SVGID_00000034779938168719324310000005961292224758662323_);}
</style>
<g id="Layer_1">
	<g>
		<linearGradient id="SVGID_1_" gradientUnits="userSpaceOnUse" x1="3.6739" y1="216.8786" x2="218.9969" y2="-18.0768">
			<stop  offset="0" style="stop-color:#9672EA"/>
			<stop  offset="1" style="stop-color:#5856E9"/>
		</linearGradient>
		<path class="st0" d="M151.6,177.57H99.16c-13.64,0-24.7-11.06-24.7-24.7V24.7C74.45,11.06,63.39,0,49.75,0H24.7
			C11.06,0,0,11.06,0,24.7v199.99c0,13.64,11.06,24.7,24.7,24.7h126.9c13.64,0,24.7-11.06,24.7-24.7v-22.42
			C176.31,188.63,165.25,177.57,151.6,177.57z"/>
		
			<linearGradient id="SVGID_00000044173054398303078380000002263304281532055739_" gradientUnits="userSpaceOnUse" x1="48.44" y1="264.3803" x2="275.1067" y2="17.047">
			<stop  offset="0" style="stop-color:#9672EA"/>
			<stop  offset="1" style="stop-color:#5856E9"/>
		</linearGradient>
		<path style="fill:url(#SVGID_00000044173054398303078380000002263304281532055739_);" d="M232.53,99.52
			c10.12,0,18.68-3.51,25.71-10.54c7.02-7.02,10.54-15.45,10.54-25.29c0-9.83-3.51-18.4-10.54-25.71
			c-7.12-7.4-15.82-11.05-26.11-10.95c-9.6,0.09-18.66,4.04-25.31,10.96c-7.02,7.31-10.53,15.88-10.53,25.71
			c0,9.84,3.51,18.27,10.54,25.29C213.84,96.01,222.42,99.52,232.53,99.52"/>
		
			<linearGradient id="SVGID_00000180349474274710762690000016877449530982543799_" gradientUnits="userSpaceOnUse" x1="133.0959" y1="341.9626" x2="359.7625" y2="94.6292">
			<stop  offset="0" style="stop-color:#9672EA"/>
			<stop  offset="1" style="stop-color:#5856E9"/>
		</linearGradient>
		<path style="fill:url(#SVGID_00000180349474274710762690000016877449530982543799_);" d="M280.51,232.04
			c-7.48-3.04-11.63-8.69-12.44-16.94c0.02-0.51,0.03-1.01,0.03-1.53c0-9.83-3.51-18.4-10.53-25.71
			c-7.3-7.59-16.26-11.24-26.9-10.94c-9.56,0.27-18.61,4.54-25.1,11.56c-6.63,7.17-9.94,15.53-9.94,25.08
			c0,9.84,3.51,18.27,10.54,25.28c7.02,7.03,15.59,10.54,25.71,10.54c5.36,0,10.28-0.98,14.77-2.96c2.41-1.06,5.15-1.18,7.55-0.12
			c6.9,3.07,13.73,3.07,13.73,3.07h16.1c2.63,0,4.76-2.13,4.76-4.76v-6.16c0-1.97-1.22-3.74-3.06-4.45L280.51,232.04z"/>
	</g>
</g>
<g id="Layer_2">
</g>
</svg>
